<svg xmlns="http://www.w3.org/2000/svg" xmlns:xlink="http://www.w3.org/1999/xlink" width="500" zoomAndPan="magnify" viewBox="0 0 375 374.999991" height="500" preserveAspectRatio="xMidYMid meet" version="1.0"><defs><g/><clipPath id="2eb970d08c"><path d="M 21 69 L 338 69 L 338 373 L 21 373 Z M 21 69 " clip-rule="nonzero"/></clipPath><clipPath id="691ea71189"><path d="M 69.332031 69.015625 L 337.582031 313.578125 L 215.300781 447.703125 L -52.949219 203.140625 Z M 69.332031 69.015625 " clip-rule="nonzero"/></clipPath><clipPath id="5a785fc552"><path d="M 215.253906 447.5625 L -52.996094 203 L 69.285156 68.875 L 337.535156 313.4375 Z M 215.253906 447.5625 " clip-rule="nonzero"/></clipPath><clipPath id="4cdd712242"><path d="M 0 11.613281 L 187.488281 11.613281 L 187.488281 107.601562 L 0 107.601562 Z M 0 11.613281 " clip-rule="nonzero"/></clipPath></defs><rect x="-37.5" width="450" fill="#ffffff" y="-37.499999" height="449.999989" fill-opacity="1"/><rect x="-37.5" width="450" fill="#ffffff" y="-37.499999" height="449.999989" fill-opacity="1"/><g clip-path="url(#2eb970d08c)"><g clip-path="url(#691ea71189)"><g clip-path="url(#5a785fc552)"><path fill="#60a5fa" d="M 69.34375 69.070312 L 79.222656 78.074219 C 16.796875 146.542969 21.710938 253.027344 90.179688 315.449219 C 158.648438 377.871094 265.136719 372.953125 327.558594 304.484375 L 337.4375 313.488281 C 304.792969 349.296875 260.160156 370.242188 211.761719 372.480469 C 163.363281 374.714844 116.984375 357.96875 81.175781 325.324219 C 45.371094 292.679688 24.425781 248.046875 22.1875 199.648438 C 19.953125 151.246094 36.703125 104.871094 69.34375 69.070312 Z M 69.34375 69.070312 " fill-opacity="1" fill-rule="nonzero"/></g></g></g><g clip-path="url(#4cdd712242)"><path fill="#60a5fa" d="M 115.683594 39.730469 C 115.683594 39.730469 158.523438 15.121094 160.507812 14.125 C 162.492188 13.125 165.503906 11.3125 170.394531 11.65625 C 175.285156 11.996094 174.277344 12.277344 177.304688 12.316406 C 180.332031 12.355469 185.101562 13.34375 186.351562 13.996094 C 187.605469 14.644531 188.886719 16.085938 183.90625 20.46875 C 178.929688 24.855469 171.886719 29.210938 165.835938 32.484375 C 159.78125 35.753906 139.324219 47.273438 137.953125 48.160156 C 137.953125 48.160156 136.785156 48.957031 135.691406 50.066406 C 134.601562 51.175781 133.035156 53.1875 131.234375 54.808594 C 129.433594 56.433594 128.71875 57.03125 128.191406 57.496094 C 127.667969 57.964844 127.816406 58.34375 127.929688 58.679688 C 128.039062 59.015625 129.210938 62.242188 129.210938 62.242188 C 129.210938 62.242188 129.773438 62.046875 130.820312 61.421875 C 131.863281 60.796875 136.40625 58.070312 138.949219 57.183594 C 141.492188 56.296875 143.210938 55.226562 145.910156 58.769531 C 148.609375 62.3125 147.519531 64.429688 145.679688 65.78125 C 143.839844 67.136719 141.085938 69.082031 137.726562 70.28125 C 134.367188 71.484375 132.714844 72.035156 132.191406 71.832031 C 131.664062 71.628906 132.808594 71.175781 132.183594 71.359375 C 131.5625 71.542969 131.738281 71.46875 131.738281 71.46875 L 135.605469 87.066406 C 135.605469 87.066406 135.578125 87.519531 135.105469 87.191406 C 134.632812 86.863281 134.21875 86.324219 133.359375 87.460938 C 132.496094 88.597656 130.871094 89.253906 129.808594 89.574219 C 128.742188 89.898438 128.066406 90.09375 127.488281 90.574219 C 126.910156 91.054688 126.660156 91.058594 126.714844 90.488281 C 126.765625 89.917969 126.542969 89.46875 126.074219 89.054688 C 125.609375 88.640625 122.527344 85.585938 122.527344 85.585938 C 122.527344 85.585938 121.140625 87.078125 119.550781 87.976562 C 117.960938 88.875 117.921875 88.160156 118.175781 87.511719 C 118.433594 86.859375 119.519531 84.941406 119.386719 84.75 C 119.253906 84.558594 116.199219 81.273438 116.128906 81.207031 C 116.054688 81.140625 115.15625 82.230469 114.023438 82.625 C 112.894531 83.019531 113.203125 82.019531 113.617188 80.996094 C 114.03125 79.972656 114.183594 79.125 114.183594 79.125 L 111.996094 76.625 C 111.996094 76.625 110.046875 78.453125 109.160156 79.148438 C 108.273438 79.84375 108.195312 80.3125 107.550781 79.96875 C 106.90625 79.628906 107.53125 78.773438 107.597656 78.367188 C 107.664062 77.957031 108.03125 76.75 107.605469 77.273438 C 107.175781 77.800781 107.105469 77.847656 106.980469 77.125 C 106.855469 76.402344 106.855469 76.625 106.855469 76.625 L 102.347656 75.238281 C 102.347656 75.238281 101.550781 76.300781 101.113281 76.328125 C 100.671875 76.351562 100.90625 75.734375 101.308594 75.214844 C 101.710938 74.699219 102.011719 73.785156 102.011719 73.785156 C 102.011719 73.785156 96.984375 75.457031 89.933594 76.855469 C 82.878906 78.253906 82.40625 79.378906 80.125 80.535156 C 77.84375 81.691406 69.203125 86.671875 58.859375 90.203125 C 48.511719 93.738281 40.96875 95.847656 40.84375 96.242188 C 40.71875 96.632812 41.300781 103.332031 41.347656 104.1875 C 41.390625 105.039062 41.976562 105.59375 40.375 106.441406 C 38.769531 107.289062 37.910156 107.753906 37.664062 107.5625 C 37.421875 107.371094 28.066406 100.101562 28.066406 100.101562 C 28.066406 100.101562 22.648438 101.230469 20.441406 101.78125 C 18.234375 102.335938 16.453125 102.136719 16.105469 101.75 C 15.757812 101.359375 15.742188 100.636719 16.125 100.375 C 16.503906 100.113281 21.085938 96.203125 21.085938 96.203125 L -3.609375 86.785156 C -3.609375 86.785156 -3.621094 86.621094 -3.042969 86.367188 C -2.464844 86.109375 -0.347656 84.632812 2.128906 85.046875 C 4.605469 85.460938 20.601562 87.441406 20.601562 87.441406 L 12.859375 72.425781 C 12.859375 72.425781 18.28125 69.085938 19.132812 69.152344 C 19.988281 69.21875 32.800781 75.679688 34.433594 76.617188 C 36.0625 77.550781 38.808594 79.042969 39.242188 79.101562 C 39.675781 79.160156 48.273438 77.90625 48.273438 77.90625 L 80.011719 59.726562 C 80.011719 59.726562 80.269531 59.859375 79.636719 59.125 C 79.007812 58.386719 78.132812 57.574219 76.945312 57.171875 C 75.753906 56.769531 75.070312 56.382812 75.070312 56.382812 C 75.070312 56.382812 71.496094 58.949219 71.128906 58.820312 C 70.757812 58.6875 70.351562 57.953125 70.675781 57.453125 C 70.996094 56.953125 71.960938 55.121094 71.960938 55.121094 L 60.246094 50.589844 C 60.246094 50.589844 56.886719 53.019531 55.980469 53.300781 C 55.074219 53.585938 55.375 52.449219 55.578125 51.921875 C 55.785156 51.398438 57.09375 49.476562 57.09375 49.476562 L 56.96875 49.3125 L 51.597656 47.273438 L 52.519531 45.371094 C 52.519531 45.371094 37.851562 40.09375 36.660156 39.359375 C 35.472656 38.621094 30 33.816406 29.269531 33.246094 C 28.539062 32.671875 28.375 32.464844 28.949219 32.292969 C 29.519531 32.121094 30.070312 31.984375 31.496094 32.773438 C 32.921875 33.5625 35.777344 35.363281 37.359375 35.664062 C 38.941406 35.96875 42.40625 35.410156 43.542969 35.714844 C 44.679688 36.015625 84.300781 43.351562 85.367188 43.589844 C 86.429688 43.824219 97.59375 45.699219 98.035156 45.5625 C 98.476562 45.425781 103.601562 42.914062 104.503906 42.382812 C 104.503906 42.382812 104.242188 41.890625 104.71875 41.574219 C 105.199219 41.261719 106.6875 40.5 107.054688 40.519531 C 107.421875 40.539062 107.324219 41.039062 108.992188 40.230469 C 110.660156 39.421875 113.238281 37.660156 115.683594 39.730469 " fill-opacity="1" fill-rule="nonzero"/></g><g fill="#60a5fa" fill-opacity="1"><g transform="translate(37.500002, 239.347835)"><g><path d="M 72.734375 -25.609375 L 82.203125 -58.46875 C 83.378906 -62.445312 84.140625 -65.269531 84.484375 -66.9375 C 84.835938 -68.613281 85.015625 -70.15625 85.015625 -71.5625 C 85.015625 -73.75 84.425781 -75.40625 83.25 -76.53125 C 82.082031 -77.664062 80.445312 -78.234375 78.34375 -78.234375 L 78.9375 -80.34375 L 100.921875 -80.34375 L 100.328125 -78.234375 C 96.816406 -77.921875 94.222656 -76.535156 92.546875 -74.078125 C 90.878906 -71.617188 89.421875 -68.207031 88.171875 -63.84375 L 69.578125 0.703125 L 67.234375 0.703125 L 32.75 -68.0625 L 19.0625 -20.34375 C 18.820312 -19.5625 18.445312 -18.332031 17.9375 -16.65625 C 17.4375 -14.988281 17.109375 -13.6875 16.953125 -12.75 C 16.796875 -11.8125 16.71875 -10.875 16.71875 -9.9375 C 16.71875 -7.675781 17.476562 -5.882812 19 -4.5625 C 20.519531 -3.238281 22.53125 -2.421875 25.03125 -2.109375 L 24.4375 0 L 1.171875 0 L 1.75 -2.109375 C 5.03125 -2.734375 7.566406 -4.445312 9.359375 -7.25 C 11.148438 -10.050781 12.976562 -14.726562 14.84375 -21.28125 L 29.578125 -72.734375 C 28.179688 -74.765625 26.816406 -76.1875 25.484375 -77 C 24.160156 -77.820312 22.523438 -78.234375 20.578125 -78.234375 L 21.171875 -80.34375 L 45.609375 -80.34375 Z M 72.734375 -25.609375 "/></g></g></g><g fill="#60a5fa" fill-opacity="1"><g transform="translate(127.652752, 239.347835)"><g><path d="M 73.90625 -61.75 L 71.6875 -61.75 C 71.21875 -65.644531 69.363281 -68.972656 66.125 -71.734375 C 62.894531 -74.503906 58.003906 -75.890625 51.453125 -75.890625 L 47.828125 -75.890625 L 39.0625 -45.25 L 41.15625 -45.25 C 45.132812 -45.25 48.703125 -46.1875 51.859375 -48.0625 C 55.015625 -49.9375 57.609375 -52.703125 59.640625 -56.359375 L 61.984375 -56.359375 L 53.90625 -28.296875 L 51.5625 -28.296875 C 51.71875 -29.546875 51.796875 -30.441406 51.796875 -30.984375 C 51.796875 -34.179688 50.609375 -36.617188 48.234375 -38.296875 C 45.859375 -39.972656 42.367188 -40.8125 37.765625 -40.8125 L 29.9375 -13.21875 C 29.15625 -10.40625 28.765625 -8.53125 28.765625 -7.59375 C 28.765625 -5.570312 29.523438 -4.148438 31.046875 -3.328125 C 32.566406 -2.515625 35.039062 -2.109375 38.46875 -2.109375 L 37.765625 0 L 1.875 0 L 1.875 -2.109375 C 4.988281 -2.492188 7.265625 -3.390625 8.703125 -4.796875 C 10.148438 -6.203125 11.421875 -8.851562 12.515625 -12.75 L 27.359375 -64.90625 C 27.910156 -66.851562 28.34375 -68.46875 28.65625 -69.75 C 28.96875 -71.039062 29.125 -72.035156 29.125 -72.734375 C 29.125 -74.296875 28.476562 -75.601562 27.1875 -76.65625 C 25.90625 -77.707031 23.898438 -78.234375 21.171875 -78.234375 L 19.53125 -78.234375 L 20.109375 -80.34375 L 78.46875 -80.34375 Z M 73.90625 -61.75 "/></g></g></g><g fill="#60a5fa" fill-opacity="1"><g transform="translate(198.278254, 239.347835)"><g><path d="M 79.984375 -59.75 L 77.875 -59.75 C 77.875 -61.15625 77.835938 -62.09375 77.765625 -62.5625 C 77.296875 -66.613281 75.695312 -69.648438 72.96875 -71.671875 C 70.238281 -73.703125 66.960938 -74.835938 63.140625 -75.078125 L 45.25 -12.859375 C 44.46875 -10.054688 44.078125 -8.265625 44.078125 -7.484375 C 44.078125 -5.691406 44.71875 -4.347656 46 -3.453125 C 47.289062 -2.554688 49.378906 -2.109375 52.265625 -2.109375 L 55.078125 -2.109375 L 54.5 0 L 12.984375 0 L 13.5625 -2.109375 C 17.539062 -2.179688 20.367188 -2.546875 22.046875 -3.203125 C 23.722656 -3.867188 24.96875 -5.0625 25.78125 -6.78125 C 26.601562 -8.5 27.71875 -11.8125 29.125 -16.71875 L 45.84375 -75.078125 L 44.90625 -75.078125 C 40.925781 -75.078125 36.769531 -73.769531 32.4375 -71.15625 C 28.113281 -68.539062 24.082031 -64.738281 20.34375 -59.75 L 18.25 -59.75 L 24.203125 -80.34375 L 85.953125 -80.34375 Z M 79.984375 -59.75 "/></g></g></g><g fill="#60a5fa" fill-opacity="1"><g transform="translate(251.566221, 239.698681)"><g><path d="M 17.359375 -39.265625 C 17.296875 -35.023438 15.921875 -25.945312 13.234375 -12.03125 L 13.40625 -11.859375 C 16.84375 -20.617188 19.273438 -26.6875 20.703125 -30.0625 C 22.140625 -33.445312 23.441406 -35.828125 24.609375 -37.203125 C 25.785156 -38.578125 27.175781 -39.265625 28.78125 -39.265625 C 30.101562 -39.265625 31.148438 -38.820312 31.921875 -37.9375 C 32.691406 -37.050781 33.078125 -35.832031 33.078125 -34.28125 C 33.078125 -31.9375 32.5625 -29.875 31.53125 -28.09375 C 30.5 -26.320312 29.328125 -25.4375 28.015625 -25.4375 C 27.265625 -25.4375 26.675781 -25.632812 26.25 -26.03125 C 25.820312 -26.4375 25.40625 -27.039062 25 -27.84375 C 24.601562 -28.695312 24.203125 -29.125 23.796875 -29.125 C 23.109375 -29.125 21.988281 -27.617188 20.4375 -24.609375 C 18.894531 -21.609375 17.289062 -17.828125 15.625 -13.265625 C 13.96875 -8.710938 12.65625 -4.289062 11.6875 0 L 1.453125 0 L 5.0625 -16.578125 C 6.5 -23.171875 7.21875 -27.925781 7.21875 -30.84375 C 7.21875 -33.195312 6.53125 -34.601562 5.15625 -35.0625 L 5.578125 -36.609375 L 15.890625 -39.265625 Z M 17.359375 -39.265625 "/></g></g></g><g fill="#60a5fa" fill-opacity="1"><g transform="translate(284.646144, 239.698681)"><g><path d="M 19.9375 -60.3125 C 21.707031 -60.3125 23.191406 -59.707031 24.390625 -58.5 C 25.597656 -57.300781 26.203125 -55.816406 26.203125 -54.046875 C 26.203125 -52.265625 25.597656 -50.757812 24.390625 -49.53125 C 23.191406 -48.300781 21.707031 -47.6875 19.9375 -47.6875 C 18.15625 -47.6875 16.648438 -48.300781 15.421875 -49.53125 C 14.191406 -50.757812 13.578125 -52.265625 13.578125 -54.046875 C 13.578125 -55.816406 14.191406 -57.300781 15.421875 -58.5 C 16.648438 -59.707031 18.15625 -60.3125 19.9375 -60.3125 Z M 12.890625 -8.59375 C 12.484375 -7.21875 12.28125 -6.359375 12.28125 -6.015625 C 12.28125 -5.035156 12.65625 -4.546875 13.40625 -4.546875 C 14.207031 -4.546875 15.050781 -5.003906 15.9375 -5.921875 C 16.820312 -6.835938 18.125 -8.5 19.84375 -10.90625 L 21.046875 -9.796875 C 18.472656 -5.835938 16.195312 -3.039062 14.21875 -1.40625 C 12.238281 0.21875 10.019531 1.03125 7.5625 1.03125 C 5.664062 1.03125 4.144531 0.546875 3 -0.421875 C 1.851562 -1.398438 1.28125 -2.691406 1.28125 -4.296875 C 1.28125 -5.492188 1.566406 -7.039062 2.140625 -8.9375 L 8.078125 -27.921875 C 8.703125 -30.160156 9.015625 -31.535156 9.015625 -32.046875 C 9.015625 -33.078125 8.597656 -33.835938 7.765625 -34.328125 C 6.941406 -34.816406 5.867188 -35.0625 4.546875 -35.0625 L 4.125 -35.0625 L 4.640625 -36.78125 L 20.625 -39.265625 L 22.25 -39.265625 Z M 12.890625 -8.59375 "/></g></g></g><g fill="#60a5fa" fill-opacity="1"><g transform="translate(307.930979, 239.698681)"><g><path d="M 24.65625 -39.265625 L 22.9375 -33.859375 L 23.109375 -33.6875 C 24.828125 -35.519531 26.488281 -36.90625 28.09375 -37.84375 C 29.695312 -38.789062 31.359375 -39.265625 33.078125 -39.265625 C 35.484375 -39.265625 37.390625 -38.273438 38.796875 -36.296875 C 40.203125 -34.328125 40.90625 -31.625 40.90625 -28.1875 C 40.90625 -23.539062 39.742188 -18.953125 37.421875 -14.421875 C 35.097656 -9.898438 32.117188 -6.191406 28.484375 -3.296875 C 24.847656 -0.410156 21.164062 1.03125 17.4375 1.03125 C 16.519531 1.03125 15.703125 0.941406 14.984375 0.765625 C 14.273438 0.597656 13.488281 0.34375 12.625 0 L 10.734375 6.1875 C 10.679688 6.300781 10.46875 7.046875 10.09375 8.421875 C 9.71875 9.796875 9.53125 11.023438 9.53125 12.109375 C 9.53125 13.367188 10.03125 14.382812 11.03125 15.15625 C 12.039062 15.9375 13.375 16.441406 15.03125 16.671875 L 14.609375 18.21875 L -8.84375 18.21875 L -8.421875 16.671875 C -6.523438 16.441406 -5.03125 15.894531 -3.9375 15.03125 C -2.851562 14.175781 -2.023438 12.773438 -1.453125 10.828125 L 9.703125 -25.4375 C 10.046875 -26.582031 10.359375 -27.738281 10.640625 -28.90625 C 10.929688 -30.082031 11.078125 -30.875 11.078125 -31.28125 C 11.078125 -32.25 10.660156 -33.101562 9.828125 -33.84375 C 9.003906 -34.59375 7.847656 -35 6.359375 -35.0625 L 6.875 -36.78125 L 23.203125 -39.265625 Z M 22 -30.671875 L 13.578125 -3.09375 C 14.085938 -2.226562 14.613281 -1.59375 15.15625 -1.1875 C 15.707031 -0.789062 16.351562 -0.59375 17.09375 -0.59375 C 19.445312 -0.59375 21.640625 -2.109375 23.671875 -5.140625 C 25.703125 -8.179688 27.332031 -11.789062 28.5625 -15.96875 C 29.800781 -20.15625 30.421875 -23.679688 30.421875 -26.546875 C 30.421875 -28.378906 30.078125 -29.894531 29.390625 -31.09375 C 28.703125 -32.300781 27.726562 -32.90625 26.46875 -32.90625 C 25.09375 -32.90625 23.601562 -32.160156 22 -30.671875 Z M 22 -30.671875 "/></g></g></g></svg>