<svg xmlns="http://www.w3.org/2000/svg" xmlns:xlink="http://www.w3.org/1999/xlink" width="500" zoomAndPan="magnify" viewBox="0 0 375 374.999991" height="500" preserveAspectRatio="xMidYMid meet" version="1.0"><defs><clipPath id="f19a7b4d1f"><path d="M 125.382812 77.554688 L 340.632812 77.554688 L 340.632812 312.304688 L 125.382812 312.304688 Z M 125.382812 77.554688 " clip-rule="nonzero"/></clipPath><clipPath id="0ea1a8436e"><path d="M 33 67 L 350 67 L 350 371 L 33 371 Z M 33 67 " clip-rule="nonzero"/></clipPath><clipPath id="57e0c3e919"><path d="M 81.101562 67.039062 L 349.351562 311.601562 L 227.070312 445.726562 L -41.179688 201.164062 Z M 81.101562 67.039062 " clip-rule="nonzero"/></clipPath><clipPath id="bf8ff138c3"><path d="M 227.023438 445.585938 L -41.226562 201.023438 L 81.054688 66.898438 L 349.304688 311.460938 Z M 227.023438 445.585938 " clip-rule="nonzero"/></clipPath><clipPath id="b0c701ff03"><path d="M 0 19.035156 L 191.097656 19.035156 L 191.097656 115.023438 L 0 115.023438 Z M 0 19.035156 " clip-rule="nonzero"/></clipPath></defs><g clip-path="url(#f19a7b4d1f)"><path fill="#60a5fa" d="M 340.613281 86.695312 L 340.613281 77.554688 L 266.210938 77.554688 L 266.210938 86.695312 L 284.964844 86.695312 L 284.964844 241.5 L 181.636719 77.554688 L 125.472656 77.554688 L 125.472656 86.695312 L 145.066406 86.695312 L 145.066406 303.386719 L 125.472656 303.386719 L 125.472656 312.527344 L 178.542969 312.527344 L 178.542969 303.386719 L 158.945312 303.386719 L 158.945312 101.464844 L 284.964844 312.527344 L 340.613281 312.527344 L 340.613281 303.386719 L 321.859375 303.386719 L 321.859375 86.695312 Z M 340.613281 86.695312 " fill-opacity="1" fill-rule="nonzero"/></g><g clip-path="url(#0ea1a8436e)"><g clip-path="url(#57e0c3e919)"><g clip-path="url(#bf8ff138c3)"><path fill="#60a5fa" d="M 81.113281 67.09375 L 90.988281 76.097656 C 28.566406 144.566406 33.480469 251.050781 101.949219 313.472656 C 170.417969 375.894531 276.90625 370.976562 339.328125 302.507812 L 349.203125 311.511719 C 316.558594 347.320312 271.925781 368.265625 223.53125 370.503906 C 175.128906 372.738281 128.75 355.992188 92.945312 323.347656 C 57.136719 290.703125 36.191406 246.070312 33.957031 197.671875 C 31.722656 149.269531 48.472656 102.894531 81.113281 67.09375 Z M 81.113281 67.09375 " fill-opacity="1" fill-rule="nonzero"/></g></g></g><g clip-path="url(#b0c701ff03)"><path fill="#60a5fa" d="M 119.292969 47.152344 C 119.292969 47.152344 162.132812 22.542969 164.117188 21.546875 C 166.101562 20.546875 169.113281 18.734375 174 19.078125 C 178.890625 19.417969 177.886719 19.699219 180.910156 19.738281 C 183.9375 19.777344 188.710938 20.765625 189.960938 21.417969 C 191.214844 22.066406 192.496094 23.507812 187.515625 27.890625 C 182.535156 32.277344 175.496094 36.632812 169.445312 39.90625 C 163.390625 43.175781 142.933594 54.695312 141.5625 55.582031 C 141.5625 55.582031 140.390625 56.378906 139.300781 57.488281 C 138.210938 58.597656 136.644531 60.609375 134.84375 62.234375 C 133.042969 63.855469 132.328125 64.453125 131.800781 64.917969 C 131.273438 65.386719 131.425781 65.765625 131.539062 66.101562 C 131.648438 66.4375 132.816406 69.664062 132.816406 69.664062 C 132.816406 69.664062 133.382812 69.46875 134.429688 68.84375 C 135.472656 68.21875 140.015625 65.492188 142.558594 64.605469 C 145.101562 63.71875 146.816406 62.648438 149.519531 66.191406 C 152.21875 69.734375 151.125 71.851562 149.285156 73.203125 C 147.445312 74.558594 144.691406 76.503906 141.332031 77.703125 C 137.976562 78.90625 136.324219 79.457031 135.800781 79.253906 C 135.273438 79.050781 136.417969 78.597656 135.792969 78.78125 C 135.167969 78.964844 135.347656 78.890625 135.347656 78.890625 L 139.214844 94.488281 C 139.214844 94.488281 139.1875 94.941406 138.714844 94.613281 C 138.242188 94.285156 137.828125 93.746094 136.964844 94.882812 C 136.105469 96.019531 134.480469 96.675781 133.417969 96.996094 C 132.351562 97.320312 131.675781 97.515625 131.097656 97.996094 C 130.519531 98.476562 130.269531 98.480469 130.320312 97.910156 C 130.375 97.339844 130.148438 96.890625 129.683594 96.476562 C 129.21875 96.0625 126.136719 93.007812 126.136719 93.007812 C 126.136719 93.007812 124.75 94.5 123.15625 95.398438 C 121.566406 96.296875 121.527344 95.582031 121.785156 94.933594 C 122.039062 94.28125 123.125 92.363281 122.992188 92.171875 C 122.863281 91.980469 119.808594 88.695312 119.734375 88.628906 C 119.664062 88.5625 118.761719 89.652344 117.632812 90.046875 C 116.5 90.441406 116.8125 89.441406 117.226562 88.417969 C 117.640625 87.394531 117.789062 86.546875 117.789062 86.546875 L 115.601562 84.046875 C 115.601562 84.046875 113.65625 85.875 112.769531 86.570312 C 111.882812 87.265625 111.804688 87.734375 111.160156 87.390625 C 110.515625 87.050781 111.140625 86.195312 111.207031 85.789062 C 111.273438 85.378906 111.640625 84.171875 111.210938 84.695312 C 110.785156 85.222656 110.714844 85.269531 110.589844 84.546875 C 110.464844 83.824219 110.464844 84.046875 110.464844 84.046875 L 105.957031 82.660156 C 105.957031 82.660156 105.160156 83.722656 104.71875 83.75 C 104.28125 83.773438 104.515625 83.15625 104.917969 82.636719 C 105.316406 82.121094 105.621094 81.207031 105.621094 81.207031 C 105.621094 81.207031 100.59375 82.878906 93.539062 84.277344 C 86.488281 85.675781 86.015625 86.800781 83.734375 87.957031 C 81.453125 89.113281 72.8125 94.09375 62.464844 97.625 C 52.121094 101.160156 44.574219 103.269531 44.449219 103.664062 C 44.324219 104.054688 44.910156 110.753906 44.953125 111.609375 C 45 112.460938 45.585938 113.015625 43.980469 113.863281 C 42.378906 114.710938 41.515625 115.175781 41.273438 114.984375 C 41.03125 114.792969 31.675781 107.523438 31.675781 107.523438 C 31.675781 107.523438 26.257812 108.652344 24.050781 109.203125 C 21.84375 109.757812 20.0625 109.558594 19.710938 109.171875 C 19.363281 108.785156 19.351562 108.058594 19.734375 107.796875 C 20.113281 107.535156 24.695312 103.625 24.695312 103.625 L 0 94.210938 C 0 94.210938 -0.0117188 94.042969 0.566406 93.789062 C 1.144531 93.53125 3.261719 92.054688 5.738281 92.46875 C 8.214844 92.882812 24.210938 94.863281 24.210938 94.863281 L 16.464844 79.847656 C 16.464844 79.847656 21.886719 76.507812 22.742188 76.574219 C 23.597656 76.640625 36.410156 83.105469 38.039062 84.039062 C 39.671875 84.972656 42.417969 86.464844 42.851562 86.523438 C 43.285156 86.582031 51.882812 85.328125 51.882812 85.328125 L 83.621094 67.152344 C 83.621094 67.152344 83.878906 67.28125 83.246094 66.546875 C 82.617188 65.808594 81.742188 64.996094 80.550781 64.59375 C 79.363281 64.191406 78.679688 63.804688 78.679688 63.804688 C 78.679688 63.804688 75.105469 66.375 74.734375 66.242188 C 74.367188 66.109375 73.960938 65.375 74.28125 64.875 C 74.605469 64.375 75.570312 62.542969 75.570312 62.542969 L 63.855469 58.011719 C 63.855469 58.011719 60.496094 60.441406 59.589844 60.722656 C 58.679688 61.007812 58.984375 59.871094 59.1875 59.34375 C 59.390625 58.820312 60.699219 56.898438 60.699219 56.898438 L 60.574219 56.734375 L 55.207031 54.695312 L 56.125 52.792969 C 56.125 52.792969 41.460938 47.515625 40.269531 46.78125 C 39.082031 46.042969 33.605469 41.238281 32.878906 40.667969 C 32.148438 40.097656 31.984375 39.886719 32.554688 39.714844 C 33.128906 39.542969 33.679688 39.40625 35.105469 40.195312 C 36.53125 40.984375 39.382812 42.785156 40.96875 43.085938 C 42.550781 43.390625 46.015625 42.832031 47.152344 43.136719 C 48.289062 43.4375 87.910156 50.773438 88.972656 51.011719 C 90.039062 51.246094 101.203125 53.125 101.644531 52.984375 C 102.085938 52.847656 107.210938 50.339844 108.113281 49.804688 C 108.113281 49.804688 107.847656 49.3125 108.328125 48.996094 C 108.808594 48.683594 110.292969 47.921875 110.660156 47.941406 C 111.03125 47.960938 110.929688 48.460938 112.601562 47.652344 C 114.269531 46.84375 116.847656 45.082031 119.292969 47.152344 " fill-opacity="1" fill-rule="nonzero"/></g><path fill="#60a5fa" d="M 92.769531 283.078125 C 88.410156 278.71875 83.589844 273.898438 79.226562 269.535156 C 69.984375 260.292969 53.167969 261.367188 41.753906 272.78125 C 32.632812 281.902344 21.441406 293.097656 12.320312 302.214844 C 0.898438 313.636719 -0.167969 330.445312 9.074219 339.691406 C 13.433594 344.050781 18.253906 348.871094 22.617188 353.230469 C 31.859375 362.476562 48.671875 361.40625 60.089844 349.988281 C 66.5625 343.515625 74.078125 336 81.160156 328.917969 C 82.988281 327.089844 82.988281 324.117188 81.160156 322.289062 C 79.332031 320.453125 76.355469 320.453125 74.527344 322.289062 C 67.445312 329.363281 59.929688 336.886719 53.457031 343.355469 C 46.046875 350.769531 35.25 352.605469 29.246094 346.601562 C 29.246094 346.601562 15.703125 333.058594 15.703125 333.058594 C 9.703125 327.054688 11.535156 316.261719 18.949219 308.847656 C 28.070312 299.730469 39.265625 288.53125 48.386719 279.417969 C 55.800781 272 66.59375 270.164062 72.597656 276.167969 C 72.597656 276.167969 86.140625 289.710938 86.140625 289.710938 C 87.96875 291.539062 90.941406 291.539062 92.769531 289.710938 C 94.597656 287.882812 94.597656 284.910156 92.769531 283.078125 Z M 53.539062 295.226562 C 57.898438 299.585938 62.71875 304.40625 67.082031 308.769531 C 76.324219 318.011719 93.140625 316.9375 104.554688 305.523438 C 113.675781 296.402344 124.867188 285.207031 133.988281 276.085938 C 145.40625 264.667969 146.476562 247.859375 137.234375 238.613281 C 132.875 234.253906 128.050781 229.433594 123.691406 225.070312 C 114.449219 215.828125 97.636719 216.898438 86.21875 228.316406 C 79.746094 234.789062 72.230469 242.304688 65.148438 249.386719 C 63.320312 251.214844 63.320312 254.1875 65.148438 256.015625 C 66.976562 257.851562 69.953125 257.851562 71.78125 256.015625 C 78.859375 248.941406 86.378906 241.417969 92.847656 234.949219 C 100.261719 227.535156 111.058594 225.699219 117.0625 231.703125 C 117.0625 231.703125 130.605469 245.246094 130.605469 245.246094 C 136.605469 251.246094 134.773438 262.042969 127.359375 269.457031 C 118.238281 278.574219 107.042969 289.769531 97.921875 298.886719 C 90.507812 306.304688 79.714844 308.140625 73.710938 302.136719 C 73.710938 302.136719 60.167969 288.59375 60.167969 288.59375 C 58.339844 286.765625 55.367188 286.765625 53.539062 288.59375 C 51.710938 290.421875 51.710938 293.394531 53.539062 295.226562 Z M 53.539062 295.226562 " fill-opacity="1" fill-rule="evenodd"/></svg>